<svg xmlns="http://www.w3.org/2000/svg" xmlns:xlink="http://www.w3.org/1999/xlink" version="1.1" x="0px" y="0px" viewBox="0 0 64 80" enable-background="new 0 0 64 64" xml:space="preserve"><g display="none"><rect x="-158.495" y="-158.821" display="inline" fill="#000000" width="787" height="375.042"/></g><g display="none"><g display="inline"><circle fill="#000000" cx="32" cy="32" r="32"/><line fill="#000000" stroke="#FFFFFF" stroke-width="6" stroke-miterlimit="10" x1="19.626" y1="44.115" x2="44.374" y2="19.366"/><line fill="#000000" stroke="#FFFFFF" stroke-width="6" stroke-miterlimit="10" x1="44.374" y1="44.115" x2="19.626" y2="19.366"/></g></g><g><g><path d="M32,64c17.645,0,32-14.355,32-32S49.644,0,32,0S0,14.356,0,32S14.355,64,32,64z M32,2c16.542,0,30,13.458,30,30    S48.542,62,32,62S2,48.542,2,32S15.458,2,32,2z"/><path d="M21.747,47.65L32,37.396L42.254,47.65l5.656-5.656L37.656,31.74L47.91,21.487l-5.656-5.656L32,26.083L21.747,15.83    l-5.656,5.656L26.344,31.74L16.091,41.993L21.747,47.65z M18.919,21.487l2.828-2.828L32,28.911l10.254-10.253l2.828,2.828    L34.828,31.74l10.254,10.254l-2.828,2.828L32,34.568L21.747,44.822l-2.828-2.828L29.172,31.74L18.919,21.487z"/></g></g><g display="none"><g display="inline"><path d="M32,64c17.645,0,32-14.355,32-32S49.644,0,32,0S0,14.356,0,32S14.355,64,32,64z M17.505,21.487l4.242-4.242L32,27.498    l10.253-10.253l4.242,4.242L36.242,31.74l10.253,10.253l-4.242,4.242L32,35.982L21.747,46.236l-4.242-4.242L27.758,31.74    L17.505,21.487z"/></g></g><g display="none"><g display="inline"><circle fill="#000000" cx="32" cy="32" r="31"/><path d="M32,64C14.355,64,0,49.645,0,32S14.355,0,32,0s32,14.355,32,32S49.644,64,32,64z M32,2C15.458,2,2,15.458,2,32    s13.458,30,30,30s30-13.458,30-30S48.542,2,32,2z"/></g><g display="inline"><polygon fill="#000000" points="42.254,17.244 32,27.498 21.747,17.244 17.505,21.487 27.758,31.74 17.505,41.993 21.747,46.236     32,35.982 42.254,46.236 46.496,41.993 36.242,31.74 46.496,21.487   "/><path d="M21.747,47.65l-5.656-5.656L26.344,31.74L16.091,21.487l5.656-5.656L32,26.083L42.254,15.83l5.656,5.656L37.656,31.74    L47.91,41.993l-5.656,5.656L32,37.396L21.747,47.65z M32,34.568l10.254,10.254l2.828-2.828L34.828,31.74l10.254-10.253    l-2.828-2.828L32,28.911L21.747,18.659l-2.828,2.828L29.172,31.74L18.919,41.993l2.828,2.828L32,34.568z"/></g></g></svg>